<svg xmlns="http://www.w3.org/2000/svg" version="1.1" xmlns:xlink="http://www.w3.org/1999/xlink" xmlns:svgjs="http://svgjs.dev/svgjs" viewBox="0 0 1422 800"><g stroke-width="1" stroke="hsl(0, 0%, 100%)" fill="none" stroke-linecap="butt"><line x1="0" y1="0" x2="102" y2="102" opacity="0.81"></line><line x1="204" y1="0" x2="102" y2="102" opacity="0.21"></line><line x1="204" y1="0" x2="306" y2="102" opacity="0.12"></line><line x1="408" y1="0" x2="306" y2="102" opacity="0.60"></line><line x1="510" y1="0" x2="408" y2="102" opacity="0.28"></line><line x1="612" y1="0" x2="510" y2="102" opacity="0.25"></line><line x1="612" y1="0" x2="714" y2="102" opacity="0.61"></line><line x1="816" y1="0" x2="714" y2="102" opacity="0.25"></line><line x1="918" y1="0" x2="816" y2="102" opacity="0.30"></line><line x1="918" y1="0" x2="1020" y2="102" opacity="0.13"></line><line x1="1122" y1="0" x2="1020" y2="102" opacity="0.60"></line><line x1="1224" y1="0" x2="1122" y2="102" opacity="0.52"></line><line x1="1224" y1="0" x2="1326" y2="102" opacity="0.19"></line><line x1="1428" y1="0" x2="1326" y2="102" opacity="0.84"></line><line x1="102" y1="102" x2="0" y2="204" opacity="0.33"></line><line x1="102" y1="102" x2="204" y2="204" opacity="0.53"></line><line x1="306" y1="102" x2="204" y2="204" opacity="0.21"></line><line x1="408" y1="102" x2="306" y2="204" opacity="0.53"></line><line x1="510" y1="102" x2="408" y2="204" opacity="0.41"></line><line x1="510" y1="102" x2="612" y2="204" opacity="0.58"></line><line x1="714" y1="102" x2="612" y2="204" opacity="0.11"></line><line x1="816" y1="102" x2="714" y2="204" opacity="0.56"></line><line x1="918" y1="102" x2="816" y2="204" opacity="0.75"></line><line x1="1020" y1="102" x2="918" y2="204" opacity="0.48"></line><line x1="1122" y1="102" x2="1020" y2="204" opacity="0.25"></line><line x1="1122" y1="102" x2="1224" y2="204" opacity="0.07"></line><line x1="1224" y1="102" x2="1326" y2="204" opacity="0.08"></line><line x1="1428" y1="102" x2="1326" y2="204" opacity="0.95"></line><line x1="102" y1="204" x2="0" y2="306" opacity="0.37"></line><line x1="204" y1="204" x2="102" y2="306" opacity="0.22"></line><line x1="204" y1="204" x2="306" y2="306" opacity="0.46"></line><line x1="408" y1="204" x2="306" y2="306" opacity="0.25"></line><line x1="510" y1="204" x2="408" y2="306" opacity="0.61"></line><line x1="510" y1="204" x2="612" y2="306" opacity="0.13"></line><line x1="714" y1="204" x2="612" y2="306" opacity="0.13"></line><line x1="714" y1="204" x2="816" y2="306" opacity="0.61"></line><line x1="918" y1="204" x2="816" y2="306" opacity="0.12"></line><line x1="918" y1="204" x2="1020" y2="306" opacity="0.39"></line><line x1="1020" y1="204" x2="1122" y2="306" opacity="0.73"></line><line x1="1122" y1="204" x2="1224" y2="306" opacity="0.81"></line><line x1="1326" y1="204" x2="1224" y2="306" opacity="0.80"></line><line x1="1428" y1="204" x2="1326" y2="306" opacity="0.63"></line><line x1="102" y1="306" x2="0" y2="408" opacity="0.33"></line><line x1="102" y1="306" x2="204" y2="408" opacity="0.79"></line><line x1="306" y1="306" x2="204" y2="408" opacity="0.20"></line><line x1="306" y1="306" x2="408" y2="408" opacity="0.21"></line><line x1="510" y1="306" x2="408" y2="408" opacity="0.83"></line><line x1="612" y1="306" x2="510" y2="408" opacity="0.58"></line><line x1="612" y1="306" x2="714" y2="408" opacity="0.19"></line><line x1="816" y1="306" x2="714" y2="408" opacity="0.98"></line><line x1="918" y1="306" x2="816" y2="408" opacity="0.29"></line><line x1="918" y1="306" x2="1020" y2="408" opacity="0.22"></line><line x1="1122" y1="306" x2="1020" y2="408" opacity="0.51"></line><line x1="1122" y1="306" x2="1224" y2="408" opacity="0.37"></line><line x1="1326" y1="306" x2="1224" y2="408" opacity="0.19"></line><line x1="1428" y1="306" x2="1326" y2="408" opacity="0.37"></line><line x1="0" y1="408" x2="102" y2="510" opacity="0.54"></line><line x1="204" y1="408" x2="102" y2="510" opacity="0.62"></line><line x1="204" y1="408" x2="306" y2="510" opacity="0.31"></line><line x1="306" y1="408" x2="408" y2="510" opacity="0.45"></line><line x1="408" y1="408" x2="510" y2="510" opacity="0.36"></line><line x1="510" y1="408" x2="612" y2="510" opacity="0.53"></line><line x1="714" y1="408" x2="612" y2="510" opacity="0.21"></line><line x1="816" y1="408" x2="714" y2="510" opacity="0.14"></line><line x1="816" y1="408" x2="918" y2="510" opacity="0.59"></line><line x1="918" y1="408" x2="1020" y2="510" opacity="0.09"></line><line x1="1122" y1="408" x2="1020" y2="510" opacity="0.50"></line><line x1="1122" y1="408" x2="1224" y2="510" opacity="0.68"></line><line x1="1326" y1="408" x2="1224" y2="510" opacity="0.78"></line><line x1="1326" y1="408" x2="1428" y2="510" opacity="0.74"></line><line x1="102" y1="510" x2="0" y2="612" opacity="0.42"></line><line x1="204" y1="510" x2="102" y2="612" opacity="0.26"></line><line x1="204" y1="510" x2="306" y2="612" opacity="0.42"></line><line x1="408" y1="510" x2="306" y2="612" opacity="0.81"></line><line x1="510" y1="510" x2="408" y2="612" opacity="0.96"></line><line x1="510" y1="510" x2="612" y2="612" opacity="0.52"></line><line x1="612" y1="510" x2="714" y2="612" opacity="0.46"></line><line x1="816" y1="510" x2="714" y2="612" opacity="0.54"></line><line x1="918" y1="510" x2="816" y2="612" opacity="0.48"></line><line x1="1020" y1="510" x2="918" y2="612" opacity="0.91"></line><line x1="1122" y1="510" x2="1020" y2="612" opacity="0.46"></line><line x1="1224" y1="510" x2="1122" y2="612" opacity="0.48"></line><line x1="1326" y1="510" x2="1224" y2="612" opacity="0.18"></line><line x1="1428" y1="510" x2="1326" y2="612" opacity="0.60"></line><line x1="102" y1="612" x2="0" y2="714" opacity="0.42"></line><line x1="102" y1="612" x2="204" y2="714" opacity="0.85"></line><line x1="204" y1="612" x2="306" y2="714" opacity="0.37"></line><line x1="408" y1="612" x2="306" y2="714" opacity="0.82"></line><line x1="510" y1="612" x2="408" y2="714" opacity="0.33"></line><line x1="510" y1="612" x2="612" y2="714" opacity="0.84"></line><line x1="612" y1="612" x2="714" y2="714" opacity="0.28"></line><line x1="714" y1="612" x2="816" y2="714" opacity="0.65"></line><line x1="816" y1="612" x2="918" y2="714" opacity="0.74"></line><line x1="1020" y1="612" x2="918" y2="714" opacity="0.81"></line><line x1="1122" y1="612" x2="1020" y2="714" opacity="0.68"></line><line x1="1224" y1="612" x2="1122" y2="714" opacity="0.47"></line><line x1="1326" y1="612" x2="1224" y2="714" opacity="0.68"></line><line x1="1428" y1="612" x2="1326" y2="714" opacity="0.38"></line><line x1="102" y1="714" x2="0" y2="816" opacity="0.27"></line><line x1="102" y1="714" x2="204" y2="816" opacity="0.20"></line><line x1="306" y1="714" x2="204" y2="816" opacity="0.47"></line><line x1="408" y1="714" x2="306" y2="816" opacity="0.24"></line><line x1="408" y1="714" x2="510" y2="816" opacity="0.74"></line><line x1="510" y1="714" x2="612" y2="816" opacity="0.41"></line><line x1="612" y1="714" x2="714" y2="816" opacity="0.53"></line><line x1="714" y1="714" x2="816" y2="816" opacity="0.35"></line><line x1="816" y1="714" x2="918" y2="816" opacity="0.49"></line><line x1="1020" y1="714" x2="918" y2="816" opacity="0.72"></line><line x1="1020" y1="714" x2="1122" y2="816" opacity="0.83"></line><line x1="1122" y1="714" x2="1224" y2="816" opacity="0.13"></line><line x1="1326" y1="714" x2="1224" y2="816" opacity="0.07"></line><line x1="1428" y1="714" x2="1326" y2="816" opacity="0.12"></line></g></svg>