<svg xmlns="http://www.w3.org/2000/svg" version="1.1" xmlns:xlink="http://www.w3.org/1999/xlink" xmlns:svgjs="http://svgjs.dev/svgjs" viewBox="0 0 1422 800"><g stroke-width="1.5" stroke="hsl(0, 0%, 100%)" fill="none" stroke-linecap="square"><line x1="0" y1="0" x2="94" y2="94"></line><line x1="94" y1="0" x2="188" y2="94"></line><line x1="188" y1="0" x2="282" y2="94"></line><line x1="376" y1="0" x2="282" y2="94"></line><line x1="376" y1="0" x2="470" y2="94"></line><line x1="470" y1="0" x2="564" y2="94"></line><line x1="564" y1="0" x2="658" y2="94"></line><line x1="658" y1="0" x2="752" y2="94"></line><line x1="752" y1="0" x2="846" y2="94"></line><line x1="846" y1="0" x2="940" y2="94"></line><line x1="940" y1="0" x2="1034" y2="94"></line><line x1="1034" y1="0" x2="1128" y2="94"></line><line x1="1222" y1="0" x2="1128" y2="94"></line><line x1="1222" y1="0" x2="1316" y2="94"></line><line x1="1410" y1="0" x2="1316" y2="94"></line><line x1="1504" y1="0" x2="1410" y2="94"></line><line x1="94" y1="94" x2="0" y2="188"></line><line x1="94" y1="94" x2="188" y2="188"></line><line x1="188" y1="94" x2="282" y2="188"></line><line x1="376" y1="94" x2="282" y2="188"></line><line x1="376" y1="94" x2="470" y2="188"></line><line x1="470" y1="94" x2="564" y2="188"></line><line x1="564" y1="94" x2="658" y2="188"></line><line x1="752" y1="94" x2="658" y2="188"></line><line x1="752" y1="94" x2="846" y2="188"></line><line x1="846" y1="94" x2="940" y2="188"></line><line x1="1034" y1="94" x2="940" y2="188"></line><line x1="1034" y1="94" x2="1128" y2="188"></line><line x1="1222" y1="94" x2="1128" y2="188"></line><line x1="1222" y1="94" x2="1316" y2="188"></line><line x1="1316" y1="94" x2="1410" y2="188"></line><line x1="1504" y1="94" x2="1410" y2="188"></line><line x1="94" y1="188" x2="0" y2="282"></line><line x1="94" y1="188" x2="188" y2="282"></line><line x1="282" y1="188" x2="188" y2="282"></line><line x1="376" y1="188" x2="282" y2="282"></line><line x1="470" y1="188" x2="376" y2="282"></line><line x1="470" y1="188" x2="564" y2="282"></line><line x1="658" y1="188" x2="564" y2="282"></line><line x1="658" y1="188" x2="752" y2="282"></line><line x1="846" y1="188" x2="752" y2="282"></line><line x1="940" y1="188" x2="846" y2="282"></line><line x1="1034" y1="188" x2="940" y2="282"></line><line x1="1034" y1="188" x2="1128" y2="282"></line><line x1="1128" y1="188" x2="1222" y2="282"></line><line x1="1222" y1="188" x2="1316" y2="282"></line><line x1="1316" y1="188" x2="1410" y2="282"></line><line x1="1410" y1="188" x2="1504" y2="282"></line><line x1="94" y1="282" x2="0" y2="376"></line><line x1="188" y1="282" x2="94" y2="376"></line><line x1="282" y1="282" x2="188" y2="376"></line><line x1="282" y1="282" x2="376" y2="376"></line><line x1="470" y1="282" x2="376" y2="376"></line><line x1="470" y1="282" x2="564" y2="376"></line><line x1="564" y1="282" x2="658" y2="376"></line><line x1="658" y1="282" x2="752" y2="376"></line><line x1="846" y1="282" x2="752" y2="376"></line><line x1="940" y1="282" x2="846" y2="376"></line><line x1="940" y1="282" x2="1034" y2="376"></line><line x1="1034" y1="282" x2="1128" y2="376"></line><line x1="1128" y1="282" x2="1222" y2="376"></line><line x1="1222" y1="282" x2="1316" y2="376"></line><line x1="1410" y1="282" x2="1316" y2="376"></line><line x1="1504" y1="282" x2="1410" y2="376"></line><line x1="0" y1="376" x2="94" y2="470"></line><line x1="188" y1="376" x2="94" y2="470"></line><line x1="282" y1="376" x2="188" y2="470"></line><line x1="282" y1="376" x2="376" y2="470"></line><line x1="376" y1="376" x2="470" y2="470"></line><line x1="470" y1="376" x2="564" y2="470"></line><line x1="564" y1="376" x2="658" y2="470"></line><line x1="752" y1="376" x2="658" y2="470"></line><line x1="846" y1="376" x2="752" y2="470"></line><line x1="940" y1="376" x2="846" y2="470"></line><line x1="1034" y1="376" x2="940" y2="470"></line><line x1="1128" y1="376" x2="1034" y2="470"></line><line x1="1128" y1="376" x2="1222" y2="470"></line><line x1="1316" y1="376" x2="1222" y2="470"></line><line x1="1316" y1="376" x2="1410" y2="470"></line><line x1="1504" y1="376" x2="1410" y2="470"></line><line x1="94" y1="470" x2="0" y2="564"></line><line x1="94" y1="470" x2="188" y2="564"></line><line x1="188" y1="470" x2="282" y2="564"></line><line x1="282" y1="470" x2="376" y2="564"></line><line x1="470" y1="470" x2="376" y2="564"></line><line x1="564" y1="470" x2="470" y2="564"></line><line x1="658" y1="470" x2="564" y2="564"></line><line x1="752" y1="470" x2="658" y2="564"></line><line x1="846" y1="470" x2="752" y2="564"></line><line x1="940" y1="470" x2="846" y2="564"></line><line x1="1034" y1="470" x2="940" y2="564"></line><line x1="1128" y1="470" x2="1034" y2="564"></line><line x1="1222" y1="470" x2="1128" y2="564"></line><line x1="1222" y1="470" x2="1316" y2="564"></line><line x1="1316" y1="470" x2="1410" y2="564"></line><line x1="1410" y1="470" x2="1504" y2="564"></line><line x1="94" y1="564" x2="0" y2="658"></line><line x1="94" y1="564" x2="188" y2="658"></line><line x1="188" y1="564" x2="282" y2="658"></line><line x1="282" y1="564" x2="376" y2="658"></line><line x1="376" y1="564" x2="470" y2="658"></line><line x1="470" y1="564" x2="564" y2="658"></line><line x1="564" y1="564" x2="658" y2="658"></line><line x1="658" y1="564" x2="752" y2="658"></line><line x1="846" y1="564" x2="752" y2="658"></line><line x1="846" y1="564" x2="940" y2="658"></line><line x1="1034" y1="564" x2="940" y2="658"></line><line x1="1128" y1="564" x2="1034" y2="658"></line><line x1="1128" y1="564" x2="1222" y2="658"></line><line x1="1222" y1="564" x2="1316" y2="658"></line><line x1="1316" y1="564" x2="1410" y2="658"></line><line x1="1410" y1="564" x2="1504" y2="658"></line><line x1="0" y1="658" x2="94" y2="752"></line><line x1="188" y1="658" x2="94" y2="752"></line><line x1="188" y1="658" x2="282" y2="752"></line><line x1="376" y1="658" x2="282" y2="752"></line><line x1="470" y1="658" x2="376" y2="752"></line><line x1="470" y1="658" x2="564" y2="752"></line><line x1="564" y1="658" x2="658" y2="752"></line><line x1="658" y1="658" x2="752" y2="752"></line><line x1="846" y1="658" x2="752" y2="752"></line><line x1="846" y1="658" x2="940" y2="752"></line><line x1="940" y1="658" x2="1034" y2="752"></line><line x1="1034" y1="658" x2="1128" y2="752"></line><line x1="1128" y1="658" x2="1222" y2="752"></line><line x1="1222" y1="658" x2="1316" y2="752"></line><line x1="1316" y1="658" x2="1410" y2="752"></line><line x1="1410" y1="658" x2="1504" y2="752"></line><line x1="94" y1="752" x2="0" y2="846"></line><line x1="94" y1="752" x2="188" y2="846"></line><line x1="188" y1="752" x2="282" y2="846"></line><line x1="376" y1="752" x2="282" y2="846"></line><line x1="376" y1="752" x2="470" y2="846"></line><line x1="564" y1="752" x2="470" y2="846"></line><line x1="658" y1="752" x2="564" y2="846"></line><line x1="752" y1="752" x2="658" y2="846"></line><line x1="846" y1="752" x2="752" y2="846"></line><line x1="940" y1="752" x2="846" y2="846"></line><line x1="940" y1="752" x2="1034" y2="846"></line><line x1="1034" y1="752" x2="1128" y2="846"></line><line x1="1128" y1="752" x2="1222" y2="846"></line><line x1="1222" y1="752" x2="1316" y2="846"></line><line x1="1410" y1="752" x2="1316" y2="846"></line><line x1="1504" y1="752" x2="1410" y2="846"></line></g></svg>