<svg xmlns="http://www.w3.org/2000/svg" version="1.1" xmlns:xlink="http://www.w3.org/1999/xlink" xmlns:svgjs="http://svgjs.dev/svgjs" viewBox="0 0 800 800"><g stroke-width="1.5" stroke="hsl(0, 0%, 100%)" fill="none" stroke-linecap="butt"><line x1="0" y1="0" x2="110" y2="110"></line><line x1="110" y1="0" x2="220" y2="110"></line><line x1="220" y1="0" x2="330" y2="110"></line><line x1="330" y1="0" x2="440" y2="110"></line><line x1="440" y1="0" x2="550" y2="110"></line><line x1="660" y1="0" x2="550" y2="110"></line><line x1="660" y1="0" x2="770" y2="110"></line><line x1="770" y1="0" x2="880" y2="110"></line><line x1="110" y1="110" x2="0" y2="220"></line><line x1="110" y1="110" x2="220" y2="220"></line><line x1="220" y1="110" x2="330" y2="220"></line><line x1="330" y1="110" x2="440" y2="220"></line><line x1="550" y1="110" x2="440" y2="220"></line><line x1="550" y1="110" x2="660" y2="220"></line><line x1="660" y1="110" x2="770" y2="220"></line><line x1="770" y1="110" x2="880" y2="220"></line><line x1="0" y1="220" x2="110" y2="330"></line><line x1="220" y1="220" x2="110" y2="330"></line><line x1="220" y1="220" x2="330" y2="330"></line><line x1="440" y1="220" x2="330" y2="330"></line><line x1="440" y1="220" x2="550" y2="330"></line><line x1="550" y1="220" x2="660" y2="330"></line><line x1="770" y1="220" x2="660" y2="330"></line><line x1="770" y1="220" x2="880" y2="330"></line><line x1="0" y1="330" x2="110" y2="440"></line><line x1="110" y1="330" x2="220" y2="440"></line><line x1="220" y1="330" x2="330" y2="440"></line><line x1="330" y1="330" x2="440" y2="440"></line><line x1="440" y1="330" x2="550" y2="440"></line><line x1="660" y1="330" x2="550" y2="440"></line><line x1="660" y1="330" x2="770" y2="440"></line><line x1="770" y1="330" x2="880" y2="440"></line><line x1="0" y1="440" x2="110" y2="550"></line><line x1="110" y1="440" x2="220" y2="550"></line><line x1="330" y1="440" x2="220" y2="550"></line><line x1="330" y1="440" x2="440" y2="550"></line><line x1="440" y1="440" x2="550" y2="550"></line><line x1="550" y1="440" x2="660" y2="550"></line><line x1="660" y1="440" x2="770" y2="550"></line><line x1="880" y1="440" x2="770" y2="550"></line><line x1="0" y1="550" x2="110" y2="660"></line><line x1="220" y1="550" x2="110" y2="660"></line><line x1="220" y1="550" x2="330" y2="660"></line><line x1="440" y1="550" x2="330" y2="660"></line><line x1="550" y1="550" x2="440" y2="660"></line><line x1="550" y1="550" x2="660" y2="660"></line><line x1="660" y1="550" x2="770" y2="660"></line><line x1="770" y1="550" x2="880" y2="660"></line><line x1="0" y1="660" x2="110" y2="770"></line><line x1="220" y1="660" x2="110" y2="770"></line><line x1="220" y1="660" x2="330" y2="770"></line><line x1="330" y1="660" x2="440" y2="770"></line><line x1="550" y1="660" x2="440" y2="770"></line><line x1="550" y1="660" x2="660" y2="770"></line><line x1="660" y1="660" x2="770" y2="770"></line><line x1="770" y1="660" x2="880" y2="770"></line><line x1="0" y1="770" x2="110" y2="880"></line><line x1="220" y1="770" x2="110" y2="880"></line><line x1="330" y1="770" x2="220" y2="880"></line><line x1="330" y1="770" x2="440" y2="880"></line><line x1="550" y1="770" x2="440" y2="880"></line><line x1="550" y1="770" x2="660" y2="880"></line><line x1="660" y1="770" x2="770" y2="880"></line><line x1="770" y1="770" x2="880" y2="880"></line></g></svg>